<mxfile host="app.diagrams.net" modified="2023-11-09T16:39:33.325Z" agent="Mozilla/5.0 (Windows NT 10.0; Win64; x64) AppleWebKit/537.36 (KHTML, like Gecko) Chrome/119.0.0.0 Safari/537.36" etag="oT-RbNoQPNYb_5wBTmFb" version="22.1.0" type="github">
  <diagram name="Página-1" id="NbK1GpKf-SiHrRZp9x5L">
    <mxGraphModel dx="1114" dy="588" grid="1" gridSize="10" guides="1" tooltips="1" connect="1" arrows="1" fold="1" page="1" pageScale="1" pageWidth="827" pageHeight="1169" math="0" shadow="0">
      <root>
        <mxCell id="0" />
        <mxCell id="1" parent="0" />
        <mxCell id="B0RsAnY1F5oWycvkUusj-1" value="" style="shape=umlActor;verticalLabelPosition=bottom;verticalAlign=top;html=1;outlineConnect=0;" vertex="1" parent="1">
          <mxGeometry x="100" y="260" width="30" height="60" as="geometry" />
        </mxCell>
        <mxCell id="B0RsAnY1F5oWycvkUusj-4" value="Pessoa" style="text;html=1;strokeColor=none;fillColor=none;align=center;verticalAlign=middle;whiteSpace=wrap;rounded=0;" vertex="1" parent="1">
          <mxGeometry x="85" y="320" width="60" height="30" as="geometry" />
        </mxCell>
        <mxCell id="B0RsAnY1F5oWycvkUusj-8" value="" style="endArrow=classic;html=1;rounded=0;exitX=1;exitY=0.3333333333333333;exitDx=0;exitDy=0;exitPerimeter=0;" edge="1" parent="1" source="B0RsAnY1F5oWycvkUusj-1">
          <mxGeometry width="50" height="50" relative="1" as="geometry">
            <mxPoint x="390" y="330" as="sourcePoint" />
            <mxPoint x="230" y="280" as="targetPoint" />
          </mxGeometry>
        </mxCell>
        <mxCell id="B0RsAnY1F5oWycvkUusj-9" value="Acorda" style="ellipse;whiteSpace=wrap;html=1;" vertex="1" parent="1">
          <mxGeometry x="230" y="240" width="120" height="80" as="geometry" />
        </mxCell>
        <mxCell id="B0RsAnY1F5oWycvkUusj-10" value="" style="endArrow=classic;html=1;rounded=0;exitX=0.958;exitY=0.263;exitDx=0;exitDy=0;exitPerimeter=0;entryX=0;entryY=0.5;entryDx=0;entryDy=0;" edge="1" parent="1" source="B0RsAnY1F5oWycvkUusj-9" target="B0RsAnY1F5oWycvkUusj-12">
          <mxGeometry width="50" height="50" relative="1" as="geometry">
            <mxPoint x="350" y="270" as="sourcePoint" />
            <mxPoint x="410" y="220" as="targetPoint" />
          </mxGeometry>
        </mxCell>
        <mxCell id="B0RsAnY1F5oWycvkUusj-11" value="" style="endArrow=classic;html=1;rounded=0;exitX=0.925;exitY=0.75;exitDx=0;exitDy=0;exitPerimeter=0;" edge="1" parent="1" source="B0RsAnY1F5oWycvkUusj-9" target="B0RsAnY1F5oWycvkUusj-13">
          <mxGeometry width="50" height="50" relative="1" as="geometry">
            <mxPoint x="390" y="330" as="sourcePoint" />
            <mxPoint x="390" y="340" as="targetPoint" />
          </mxGeometry>
        </mxCell>
        <mxCell id="B0RsAnY1F5oWycvkUusj-12" value="Dorme de novo" style="ellipse;whiteSpace=wrap;html=1;" vertex="1" parent="1">
          <mxGeometry x="400" y="170" width="120" height="80" as="geometry" />
        </mxCell>
        <mxCell id="B0RsAnY1F5oWycvkUusj-13" value="Levanta" style="ellipse;whiteSpace=wrap;html=1;" vertex="1" parent="1">
          <mxGeometry x="400" y="320" width="120" height="80" as="geometry" />
        </mxCell>
        <mxCell id="B0RsAnY1F5oWycvkUusj-14" value="" style="ellipse;whiteSpace=wrap;html=1;" vertex="1" parent="1">
          <mxGeometry x="530" y="260" width="120" height="80" as="geometry" />
        </mxCell>
        <mxCell id="B0RsAnY1F5oWycvkUusj-15" value="" style="ellipse;whiteSpace=wrap;html=1;" vertex="1" parent="1">
          <mxGeometry x="560" y="360" width="120" height="80" as="geometry" />
        </mxCell>
        <mxCell id="B0RsAnY1F5oWycvkUusj-16" value="" style="ellipse;whiteSpace=wrap;html=1;" vertex="1" parent="1">
          <mxGeometry x="460" y="430" width="120" height="80" as="geometry" />
        </mxCell>
        <mxCell id="B0RsAnY1F5oWycvkUusj-19" value="" style="endArrow=classic;html=1;rounded=0;exitX=1;exitY=0;exitDx=0;exitDy=0;entryX=0;entryY=0.5;entryDx=0;entryDy=0;" edge="1" parent="1" source="B0RsAnY1F5oWycvkUusj-13" target="B0RsAnY1F5oWycvkUusj-14">
          <mxGeometry width="50" height="50" relative="1" as="geometry">
            <mxPoint x="390" y="330" as="sourcePoint" />
            <mxPoint x="440" y="280" as="targetPoint" />
          </mxGeometry>
        </mxCell>
        <mxCell id="B0RsAnY1F5oWycvkUusj-20" value="" style="endArrow=classic;html=1;rounded=0;exitX=1;exitY=1;exitDx=0;exitDy=0;entryX=0;entryY=0.5;entryDx=0;entryDy=0;" edge="1" parent="1" source="B0RsAnY1F5oWycvkUusj-13" target="B0RsAnY1F5oWycvkUusj-15">
          <mxGeometry width="50" height="50" relative="1" as="geometry">
            <mxPoint x="390" y="330" as="sourcePoint" />
            <mxPoint x="440" y="280" as="targetPoint" />
          </mxGeometry>
        </mxCell>
        <mxCell id="B0RsAnY1F5oWycvkUusj-21" value="" style="endArrow=classic;html=1;rounded=0;exitX=0.5;exitY=1;exitDx=0;exitDy=0;entryX=0.25;entryY=0.125;entryDx=0;entryDy=0;entryPerimeter=0;" edge="1" parent="1" source="B0RsAnY1F5oWycvkUusj-13" target="B0RsAnY1F5oWycvkUusj-16">
          <mxGeometry width="50" height="50" relative="1" as="geometry">
            <mxPoint x="390" y="330" as="sourcePoint" />
            <mxPoint x="440" y="280" as="targetPoint" />
          </mxGeometry>
        </mxCell>
        <mxCell id="B0RsAnY1F5oWycvkUusj-22" value="Vai direto para a cozinha tomar café" style="text;html=1;strokeColor=none;fillColor=none;align=center;verticalAlign=middle;whiteSpace=wrap;rounded=0;" vertex="1" parent="1">
          <mxGeometry x="580" y="385" width="80" height="30" as="geometry" />
        </mxCell>
        <mxCell id="B0RsAnY1F5oWycvkUusj-23" value="Escova os dentes" style="text;html=1;strokeColor=none;fillColor=none;align=center;verticalAlign=middle;whiteSpace=wrap;rounded=0;" vertex="1" parent="1">
          <mxGeometry x="560" y="285" width="60" height="30" as="geometry" />
        </mxCell>
        <mxCell id="B0RsAnY1F5oWycvkUusj-25" value="Vai mexer no celular" style="text;html=1;strokeColor=none;fillColor=none;align=center;verticalAlign=middle;whiteSpace=wrap;rounded=0;" vertex="1" parent="1">
          <mxGeometry x="490" y="455" width="60" height="30" as="geometry" />
        </mxCell>
      </root>
    </mxGraphModel>
  </diagram>
</mxfile>
